<svg xmlns="http://www.w3.org/2000/svg" viewBox="0 0 500 500"><g id="freepik--Floor--inject-16"><path id="freepik--floor--inject-16" d="M86.59,260.6c-90.24,52.1-90.24,136.57,0,188.68s236.56,52.1,326.81,0,90.24-136.58,0-188.68S176.84,208.49,86.59,260.6Z" style="fill:#fafafa"></path></g><g id="freepik--Shadows--inject-16"><ellipse id="freepik--Shadow--inject-16" cx="234.13" cy="413.81" rx="52.25" ry="30.16" style="fill:#e0e0e0"></ellipse><ellipse id="freepik--shadow--inject-16" cx="420.25" cy="408.06" rx="52.25" ry="30.16" style="fill:#e0e0e0"></ellipse><path id="freepik--shadow--inject-16" d="M97.57,419.06c9.78,5.71,9.78,15,0,20.68s-25.64,5.71-35.42,0-9.78-15,0-20.68S87.79,413.35,97.57,419.06Z" style="fill:#e0e0e0"></path></g><g id="freepik--Gears--inject-16"><g id="freepik--gears--inject-16"><path d="M116.5,98.23a.93.93,0,0,1-.29,0l-2.93-.74a1.65,1.65,0,0,1-1.14-2.25l2.16-5.34a1.3,1.3,0,0,0-.28-1.18,8.2,8.2,0,0,1-.8-1,.5.5,0,0,0-.66-.2l-4,2.46a1.44,1.44,0,0,1-1.38.13,1.42,1.42,0,0,1-.77-1.14l-.61-4.29a3,3,0,0,1,.93-2.5l4-3.48a3,3,0,0,0,.8-1.51,24.46,24.46,0,0,1,.59-2.9.77.77,0,0,0-.38-.84l-2.26-1a1.8,1.8,0,0,1-1-1,1.84,1.84,0,0,1,.08-1.4l2.84-5.9a2.47,2.47,0,0,1,2.31-1.33l2.84.23a1.62,1.62,0,0,0,1.23-.59A34.59,34.59,0,0,1,120,59.6a2.61,2.61,0,0,0,.58-1.55l-.13-4.21a3.11,3.11,0,0,1,1.16-2.4l4.52-3.34a1.48,1.48,0,0,1,1.36-.25,1.45,1.45,0,0,1,.9,1l.9,3.34a.35.35,0,0,0,.17.22.4.4,0,0,0,.34,0,16.46,16.46,0,0,1,1.91-.57A2.22,2.22,0,0,0,133,51L136,45.8a2.27,2.27,0,0,1,2.43-1l2.93.75a1.65,1.65,0,0,1,1.14,2.25l-2.16,5.33a1.29,1.29,0,0,0,.29,1.19,8.24,8.24,0,0,1,.79,1,.48.48,0,0,0,.66.2l4-2.46a1.37,1.37,0,0,1,2.16,1l.6,4.28a3,3,0,0,1-.93,2.5l-4,3.48a2.94,2.94,0,0,0-.79,1.51,28.87,28.87,0,0,1-.59,2.91.76.76,0,0,0,.37.84l2.27,1a1.8,1.8,0,0,1,.94,1,1.77,1.77,0,0,1-.08,1.39L143.11,79a2.47,2.47,0,0,1-2.31,1.33L138,80.06a1.61,1.61,0,0,0-1.24.58,34.59,34.59,0,0,1-2.17,2.7,2.61,2.61,0,0,0-.58,1.55l.14,4.21A3.15,3.15,0,0,1,133,91.51l-4.51,3.33a1.46,1.46,0,0,1-1.36.26,1.5,1.5,0,0,1-.91-1l-.9-3.33a.32.32,0,0,0-.17-.23.38.38,0,0,0-.33,0,14.84,14.84,0,0,1-1.92.57,2.3,2.3,0,0,0-1.28.89l-2.93,5.19A2.28,2.28,0,0,1,116.5,98.23ZM113,86.05a1.87,1.87,0,0,1,1.37.86,8.49,8.49,0,0,0,.67.88,2.62,2.62,0,0,1,.53,2.56l-2.16,5.33a.39.39,0,0,0,0,.3.31.31,0,0,0,.24.17l2.93.75a.93.93,0,0,0,.95-.41l2.93-5.19a3.51,3.51,0,0,1,2.14-1.53,13.8,13.8,0,0,0,1.75-.52,1.71,1.71,0,0,1,1.4.06,1.66,1.66,0,0,1,.84,1.07l.9,3.33a.27.27,0,0,0,.07.14.37.37,0,0,0,.13-.07l4.52-3.34a1.79,1.79,0,0,0,.62-1.29l-.14-4.21a4,4,0,0,1,.92-2.47c.72-.82,1.43-1.69,2.09-2.61a3,3,0,0,1,2.41-1.13l2.83.23a1.18,1.18,0,0,0,1-.58l2.84-5.9a.44.44,0,0,0,0-.37.49.49,0,0,0-.25-.28l-2.26-1a2.1,2.1,0,0,1-1.11-2.37,23.93,23.93,0,0,0,.57-2.77A4.24,4.24,0,0,1,143,63.33l4-3.48a1.69,1.69,0,0,0,.49-1.31h0l-.6-4.29a.25.25,0,0,0,0-.12.27.27,0,0,0-.11,0l-4,2.46a1.8,1.8,0,0,1-2.46-.6,6.58,6.58,0,0,0-.67-.88,2.61,2.61,0,0,1-.52-2.57l2.15-5.33a.36.36,0,0,0,0-.29.33.33,0,0,0-.24-.18L138.07,46a1,1,0,0,0-1,.41l-2.92,5.2A3.6,3.6,0,0,1,132,53.18a11.84,11.84,0,0,0-1.74.52,1.77,1.77,0,0,1-1.41-.07,1.67,1.67,0,0,1-.84-1.06l-.9-3.34c0-.09-.05-.13-.06-.13a.35.35,0,0,0-.14.06l-4.51,3.34a1.82,1.82,0,0,0-.63,1.3L122,58a4,4,0,0,1-.92,2.47c-.72.81-1.42,1.69-2.09,2.6a2.92,2.92,0,0,1-2.41,1.13L113.7,64a1.15,1.15,0,0,0-1,.57l-2.85,5.91a.48.48,0,0,0,0,.37.44.44,0,0,0,.25.27l2.26,1a2.09,2.09,0,0,1,1.11,2.37,22.29,22.29,0,0,0-.56,2.77,4.22,4.22,0,0,1-1.24,2.31l-4,3.48a1.74,1.74,0,0,0-.49,1.32l.61,4.28a.49.49,0,0,0,0,.13l.11-.06,4-2.45A1.79,1.79,0,0,1,113,86.05Zm9.65-2.69a5.21,5.21,0,0,1-1.53-.38,5.81,5.81,0,0,1-3.3-4.86c-.75-5.26,2.77-12.58,7.83-16.33,2.82-2.08,5.71-2.75,7.91-1.82a5.79,5.79,0,0,1,3.3,4.86c.75,5.25-2.77,12.58-7.83,16.32h0A9.6,9.6,0,0,1,122.61,83.36Zm9.24-22.46a8.33,8.33,0,0,0-5.45,2c-4.72,3.48-8,10.25-7.31,15.07a4.49,4.49,0,0,0,2.5,3.83c1.77.74,4.17.13,6.61-1.67,4.72-3.49,8-10.25,7.31-15.08a4.48,4.48,0,0,0-2.5-3.82A3.73,3.73,0,0,0,131.85,60.9Z" style="fill:#e0e0e0"></path><path d="M157.6,74.51l-.2,0L155.46,74a1.24,1.24,0,0,1-.8-.63,1.19,1.19,0,0,1,0-1l1.43-3.54a.77.77,0,0,0-.17-.68,5.62,5.62,0,0,1-.54-.7c0-.07-.17-.18-.29-.1L152.41,69a1,1,0,0,1-1,.09,1.06,1.06,0,0,1-.58-.83l-.4-2.85a2.09,2.09,0,0,1,.66-1.75l2.66-2.32a1.84,1.84,0,0,0,.5-.93,18.17,18.17,0,0,1,.39-2,.4.4,0,0,0-.19-.43l-1.51-.69a1.34,1.34,0,0,1-.68-.74,1.31,1.31,0,0,1,.06-1l1.89-3.92a1.74,1.74,0,0,1,1.63-.94l1.88.15a1,1,0,0,0,.73-.35c.46-.63.95-1.23,1.45-1.8a1.65,1.65,0,0,0,.36-1l-.09-2.79a2.2,2.2,0,0,1,.81-1.69L164,41a1,1,0,0,1,1.67.58l.6,2.21c.09.11.14.11.2.09a9.77,9.77,0,0,1,1.28-.39,1.35,1.35,0,0,0,.78-.54l1.95-3.45a1.59,1.59,0,0,1,1.73-.74l1.95.5a1.21,1.21,0,0,1,.79.62,1.19,1.19,0,0,1,0,1l-1.43,3.54a.77.77,0,0,0,.17.68,7.63,7.63,0,0,1,.54.7.21.21,0,0,0,.29.1l2.65-1.63a1,1,0,0,1,1.59.75l.4,2.85a2.1,2.1,0,0,1-.66,1.75L175.84,52a1.87,1.87,0,0,0-.5.94,18,18,0,0,1-.39,1.94.4.4,0,0,0,.19.43l1.51.7a1.3,1.3,0,0,1,.68.74,1.27,1.27,0,0,1-.06,1l-1.89,3.92a1.75,1.75,0,0,1-1.63.94l-1.88-.15a1,1,0,0,0-.73.34c-.46.63-.95,1.24-1.45,1.81a1.62,1.62,0,0,0-.36,1l.09,2.8a2.19,2.19,0,0,1-.81,1.68l-3,2.22a1.09,1.09,0,0,1-1,.18,1.06,1.06,0,0,1-.67-.76l-.6-2.22c-.1-.11-.15-.1-.2-.08a9.26,9.26,0,0,1-1.28.38,1.4,1.4,0,0,0-.78.54l-2,3.45A1.62,1.62,0,0,1,157.6,74.51Zm-2.33-8.3a1.33,1.33,0,0,1,1,.62,6.17,6.17,0,0,0,.44.57,1.84,1.84,0,0,1,.37,1.81l-1.43,3.54.08.17,1.95.5a.52.52,0,0,0,.51-.22l1.95-3.45a2.45,2.45,0,0,1,1.49-1.07,8.64,8.64,0,0,0,1.14-.34,1.25,1.25,0,0,1,1,0,1.22,1.22,0,0,1,.61.77l.6,2.21,3-2.22a1.11,1.11,0,0,0,.37-.78l-.09-2.79a2.77,2.77,0,0,1,.64-1.72c.48-.54.94-1.12,1.38-1.72a2,2,0,0,1,1.69-.79l1.88.15a.65.65,0,0,0,.57-.32l1.89-3.93a.16.16,0,0,0,0-.16.2.2,0,0,0-.11-.12l-1.5-.7a1.48,1.48,0,0,1-.79-1.69,18.55,18.55,0,0,0,.37-1.83,2.94,2.94,0,0,1,.85-1.6l2.67-2.31a1,1,0,0,0,.29-.78h0l-.4-2.85-2.59,1.66a1.29,1.29,0,0,1-1.77-.43,4.3,4.3,0,0,0-.44-.57,1.84,1.84,0,0,1-.37-1.81l1.43-3.55.05-.13-.13,0-2-.49a.48.48,0,0,0-.51.22l-2,3.45A2.43,2.43,0,0,1,168,44.58a9.34,9.34,0,0,0-1.15.35,1.26,1.26,0,0,1-1,0,1.22,1.22,0,0,1-.61-.77l-.6-2.22-3,2.23a1.09,1.09,0,0,0-.37.77l.09,2.8a2.77,2.77,0,0,1-.63,1.71,21.29,21.29,0,0,0-1.39,1.72,2,2,0,0,1-1.69.79l-1.88-.15a.7.7,0,0,0-.57.33L153.29,56a.21.21,0,0,0,0,.17.2.2,0,0,0,.11.12l1.5.69a1.51,1.51,0,0,1,.8,1.7,16,16,0,0,0-.38,1.82,2.87,2.87,0,0,1-.85,1.61l-2.67,2.31a1,1,0,0,0-.29.78l.4,2.85,2.59-1.66A1.17,1.17,0,0,1,155.27,66.21Zm6.4-1.58a3.37,3.37,0,0,1-1-.26,4,4,0,0,1-2.26-3.31c-.5-3.53,1.86-8.43,5.25-10.94,1.9-1.41,3.85-1.86,5.35-1.23a4,4,0,0,1,2.26,3.31c.5,3.53-1.85,8.44-5.24,10.94h0A6.45,6.45,0,0,1,161.67,64.63Zm6.13-14.92A5.47,5.47,0,0,0,164.25,51c-3.1,2.29-5.26,6.73-4.81,9.91a2.9,2.9,0,0,0,1.6,2.46c1.13.48,2.7.07,4.29-1.1h0c3.1-2.29,5.26-6.74,4.81-9.91a2.88,2.88,0,0,0-1.6-2.46A2.6,2.6,0,0,0,167.8,49.71Z" style="fill:#e0e0e0"></path></g></g><g id="freepik--plant-2--inject-16"><g id="freepik--Plants--inject-16"><path d="M454.11,390.59s-6-21.32-.1-44.3c3.29-12.84,10.86-19.38,15.79-20.41,5.53-1.15,11.7,3.59,7.54,12.25-3.95,8.23-12.75,12.27-16.11,33.07a88.07,88.07,0,0,0-1.11,19.38,1.77,1.77,0,0,1-2.55,1.71Z" style="fill:#009EF7"></path><path d="M454.11,390.59s-6-21.32-.1-44.3c3.29-12.84,10.86-19.38,15.79-20.41,5.53-1.15,11.7,3.59,7.54,12.25-3.95,8.23-12.75,12.27-16.11,33.07a88.07,88.07,0,0,0-1.11,19.38,1.77,1.77,0,0,1-2.55,1.71Z" style="fill:#fff;opacity:0.5"></path><path d="M457.1,385.5a.37.37,0,0,0,.28-.42c-4.83-24.57,5.09-46.47,13.69-54.18a.36.36,0,0,0,0-.5.35.35,0,0,0-.49,0c-8.72,7.82-18.79,30-13.91,54.84A.36.36,0,0,0,457.1,385.5Z" style="fill:#fff"></path><path d="M458.13,392.55a1.77,1.77,0,0,0,2.55-1.31c.81-5.07,3.47-10.45,8.77-16.35,6.17-6.86,14.92-13.43,13-18.83s-9.14-3.56-14-.06-15.39,16.1-11.2,36.11Z" style="fill:#009EF7"></path><path d="M458.13,392.55a1.77,1.77,0,0,0,2.55-1.31c.81-5.07,3.47-10.45,8.77-16.35,6.17-6.86,14.92-13.43,13-18.83s-9.14-3.56-14-.06-15.39,16.1-11.2,36.11Z" style="fill:#fff;opacity:0.65"></path><path d="M458.64,392.91a.34.34,0,0,0,.28-.35c-1.76-15.13,9.5-33.05,18.29-36.91a.35.35,0,0,0,.17-.47.36.36,0,0,0-.46-.17c-8.79,3.06-21.16,22.43-18.7,37.56a.38.38,0,0,0,.36.35Z" style="fill:#fff"></path></g></g><g id="freepik--plant-1--inject-16"><g id="freepik--Plant--inject-16"><g id="freepik--Pot--inject-16"><path d="M64.83,432.78c-8-8.29-12.76-29.25-4.92-35.83h39.9c7.84,6.58,3.12,27.53-4.91,35.83l-.22.23-.28.27c-.23.22-.47.44-.72.65l-.2.16c-.19.15-.39.31-.6.46s-.69.47-1,.67c-6.62,3.86-17.34,3.86-24,0h0a11,11,0,0,1-1-.68c-.2-.14-.38-.28-.56-.43l-.24-.19a8.47,8.47,0,0,1-.7-.63L65,433Z" style="fill:#37474f"></path><path d="M96.35,394.3c9.1,5.31,9.1,13.93,0,19.25s-23.87,5.31-33,0-9.1-13.94,0-19.25S87.24,389,96.35,394.3Z" style="fill:#455a64"></path><path d="M92,396.85c6.68,3.91,6.68,10.24,0,14.14s-17.53,3.9-24.21,0-6.69-10.23,0-14.14S85.28,393,92,396.85Z" style="fill:#263238"></path><path d="M67.76,403.56c6.68-3.9,17.52-3.9,24.21,0a11.16,11.16,0,0,1,4,3.72A11.23,11.23,0,0,1,92,411c-6.69,3.9-17.53,3.9-24.21,0a11.27,11.27,0,0,1-4-3.71A11.2,11.2,0,0,1,67.76,403.56Z" style="fill:#fff"></path></g><path d="M74.4,365.21c-2.69,3.4-10.78,4.9-14.81-3.44-3.79-7.81-7.79-15.19-9-18.08a3.05,3.05,0,0,1,1.65-4.08s-.1-4.44,7.63-2,13.37,6.58,17.21,13.7S79.35,363.84,74.4,365.21Z" style="fill:#009EF7"></path><g style="opacity:0.5"><path d="M74.4,365.21c-2.69,3.4-10.78,4.9-14.81-3.44-3.79-7.81-7.79-15.19-9-18.08a3.05,3.05,0,0,1,1.65-4.08s-.1-4.44,7.63-2,13.37,6.58,17.21,13.7S79.35,363.84,74.4,365.21Z" style="fill:#fff"></path></g><path d="M78.52,376.32a39.4,39.4,0,0,0-1-4.43,63.11,63.11,0,0,0-3.14-8.46A64.37,64.37,0,0,0,64.46,348,55.79,55.79,0,0,0,57,340.81c-.08-.06-.13.11-.07.17a68.46,68.46,0,0,1,11.83,14,68.73,68.73,0,0,1,7.47,16.3c.49,1.6,1,3.21,1.39,4.84s.74,3.33,1.15,5c0,.17.31.25.3,0A31.87,31.87,0,0,0,78.52,376.32Z" style="fill:#009EF7"></path><path d="M78.52,376.32a39.4,39.4,0,0,0-1-4.43,63.11,63.11,0,0,0-3.14-8.46A64.37,64.37,0,0,0,64.46,348,55.79,55.79,0,0,0,57,340.81c-.08-.06-.13.11-.07.17a68.46,68.46,0,0,1,11.83,14,68.73,68.73,0,0,1,7.47,16.3c.49,1.6,1,3.21,1.39,4.84s.74,3.33,1.15,5c0,.17.31.25.3,0A31.87,31.87,0,0,0,78.52,376.32Z" style="opacity:0.30000000000000004"></path><path d="M83.17,359.24c-7,2.17-12.23-3.31-10.43-11.91S83.58,329.2,87,331.76c2.12-2.13,6.82-1.36,9,5.62S96.21,362.28,83.17,359.24Z" style="fill:#009EF7"></path><g style="opacity:0.30000000000000004"><path d="M83.17,359.24c-7,2.17-12.23-3.31-10.43-11.91S83.58,329.2,87,331.76c2.12-2.13,6.82-1.36,9,5.62S96.21,362.28,83.17,359.24Z" style="fill:#fff"></path></g><path d="M87.29,337a94.07,94.07,0,0,0-4.66,15.44,149.85,149.85,0,0,0-2.71,16.17c-1.26,10.5-1.48,9.92-1.41,20.48q0,4.4.11,8.77c.06,3,0,6,.27,9,.1,1.15,1.73.84,1.76-.21.1-5.26-.19-10.55-.24-15.81a34.14,34.14,0,0,1,.09-4.41,219.26,219.26,0,0,1,2.85-31.65c.5-2.91,1.05-5.82,1.73-8.7.72-3,1.59-6,2.39-9C87.5,337,87.36,336.83,87.29,337Z" style="fill:#009EF7"></path><path d="M87.29,337a94.07,94.07,0,0,0-4.66,15.44,149.85,149.85,0,0,0-2.71,16.17c-1.26,10.5-1.48,9.92-1.41,20.48q0,4.4.11,8.77c.06,3,0,6,.27,9,.1,1.15,1.73.84,1.76-.21.1-5.26-.19-10.55-.24-15.81a34.14,34.14,0,0,1,.09-4.41,219.26,219.26,0,0,1,2.85-31.65c.5-2.91,1.05-5.82,1.73-8.7.72-3,1.59-6,2.39-9C87.5,337,87.36,336.83,87.29,337Z" style="opacity:0.30000000000000004"></path><path d="M66.93,382.46C66,387,59.8,390.29,52.6,387.31s-21.38-21.68-14.9-23.74c-.35-3.39,19.25-6.18,28.94,5.77C73.69,378,66.93,382.46,66.93,382.46Z" style="fill:#009EF7"></path><g style="opacity:0.7000000000000001"><path d="M66.93,382.46C66,387,59.8,390.29,52.6,387.31s-21.38-21.68-14.9-23.74c-.35-3.39,19.25-6.18,28.94,5.77C73.69,378,66.93,382.46,66.93,382.46Z" style="fill:#fff"></path></g><path d="M77.21,389.21A32.89,32.89,0,0,0,74.29,386a88.2,88.2,0,0,0-6.61-5.91,89.5,89.5,0,0,0-15.17-9.76,79.39,79.39,0,0,0-9.16-4.16c-.09,0-.06.13,0,.16,2.61,1.24,5.24,2.44,7.77,3.85A88.56,88.56,0,0,1,58.73,375a110.06,110.06,0,0,1,13.4,11c1.18,1.14,2.31,2.33,3.5,3.46s2.58,2.24,3.77,3.46c.17.18.48.1.29-.16C78.85,391.55,78.09,390.35,77.21,389.21Z" style="fill:#009EF7"></path><path d="M77.21,389.21A32.89,32.89,0,0,0,74.29,386a88.2,88.2,0,0,0-6.61-5.91,89.5,89.5,0,0,0-15.17-9.76,79.39,79.39,0,0,0-9.16-4.16c-.09,0-.06.13,0,.16,2.61,1.24,5.24,2.44,7.77,3.85A88.56,88.56,0,0,1,58.73,375a110.06,110.06,0,0,1,13.4,11c1.18,1.14,2.31,2.33,3.5,3.46s2.58,2.24,3.77,3.46c.17.18.48.1.29-.16C78.85,391.55,78.09,390.35,77.21,389.21Z" style="opacity:0.30000000000000004"></path><path d="M106.75,377c-.12-2.56-13-2.42-19.06,2.44s-6.77,9.63-3,11.28c-.66,5.41,7.87,9,15.51,2.21S109.5,377.52,106.75,377Z" style="fill:#009EF7"></path><path d="M106.75,377c-.12-2.56-13-2.42-19.06,2.44s-6.77,9.63-3,11.28c-.66,5.41,7.87,9,15.51,2.21S109.5,377.52,106.75,377Z" style="fill:#fff;opacity:0.30000000000000004"></path><path d="M94,383.75A31.65,31.65,0,0,0,79.8,396.27c-.2.31.29.92.5.58a36.88,36.88,0,0,1,13.75-13S94.1,383.72,94,383.75Z" style="fill:#009EF7"></path><path d="M94,383.75A31.65,31.65,0,0,0,79.8,396.27c-.2.31.29.92.5.58a36.88,36.88,0,0,1,13.75-13S94.1,383.72,94,383.75Z" style="opacity:0.30000000000000004"></path><path d="M85.46,399c-4.36,4.3.46,9.61,7.55,12.24a25.35,25.35,0,0,0,18.33-.85c3.42-1.71,4.12-2.56,4.12-2.56a43.57,43.57,0,0,0-3.61-8.67A18.18,18.18,0,0,0,94,391C84.91,392.12,84.17,395.89,85.46,399Z" style="fill:#009EF7"></path><g style="opacity:0.5"><path d="M85.46,399c-4.36,4.3.46,9.61,7.55,12.24a25.35,25.35,0,0,0,18.33-.85c3.42-1.71,4.12-2.56,4.12-2.56a43.57,43.57,0,0,0-3.61-8.67A18.18,18.18,0,0,0,94,391C84.91,392.12,84.17,395.89,85.46,399Z" style="fill:#fff"></path></g><path d="M103.79,402.24a45.08,45.08,0,0,0-11.1-4.11c-3.8-.74-8.47-.77-11.55,1.94-1.19,1.05-2.77,3.32-1.8,4.93.09.16.57.46.68.14a15.3,15.3,0,0,1,1-3,6.08,6.08,0,0,1,2.37-2.24,14.12,14.12,0,0,1,8-1.36c4.32.41,8.39,2.15,12.37,3.78C103.83,402.35,103.83,402.25,103.79,402.24Z" style="fill:#009EF7"></path><path d="M103.79,402.24a45.08,45.08,0,0,0-11.1-4.11c-3.8-.74-8.47-.77-11.55,1.94-1.19,1.05-2.77,3.32-1.8,4.93.09.16.57.46.68.14a15.3,15.3,0,0,1,1-3,6.08,6.08,0,0,1,2.37-2.24,14.12,14.12,0,0,1,8-1.36c4.32.41,8.39,2.15,12.37,3.78C103.83,402.35,103.83,402.25,103.79,402.24Z" style="opacity:0.30000000000000004"></path><path d="M86.66,372c-1.09,3.84,3.81,7.42,9.9,5.37s12.42-4,17.61-4,8.49-3.48,7.42-5.79-2.33-7.77-15.56-9.33-19.2,3.11-22,6.76S84.46,372.63,86.66,372Z" style="fill:#009EF7"></path><g style="opacity:0.7000000000000001"><path d="M86.66,372c-1.09,3.84,3.81,7.42,9.9,5.37s12.42-4,17.61-4,8.49-3.48,7.42-5.79-2.33-7.77-15.56-9.33-19.2,3.11-22,6.76S84.46,372.63,86.66,372Z" style="fill:#fff"></path></g><path d="M111.25,363.92a16.11,16.11,0,0,0-4.27-.39,26.05,26.05,0,0,0-4.13.34,32.12,32.12,0,0,0-7.77,2.41c-4.65,2.07-9.27,4.76-12.29,9a29.39,29.39,0,0,0-3.89,7.29c-.18.49.78.77,1,.33a53.74,53.74,0,0,1,3.31-6.34,19.46,19.46,0,0,1,5.07-5.28,40.28,40.28,0,0,1,14-6.43,28.14,28.14,0,0,1,4.48-.66,42.12,42.12,0,0,1,4.49.17C111.48,364.32,111.39,364,111.25,363.92Z" style="fill:#009EF7"></path><path d="M111.25,363.92a16.11,16.11,0,0,0-4.27-.39,26.05,26.05,0,0,0-4.13.34,32.12,32.12,0,0,0-7.77,2.41c-4.65,2.07-9.27,4.76-12.29,9a29.39,29.39,0,0,0-3.89,7.29c-.18.49.78.77,1,.33a53.74,53.74,0,0,1,3.31-6.34,19.46,19.46,0,0,1,5.07-5.28,40.28,40.28,0,0,1,14-6.43,28.14,28.14,0,0,1,4.48-.66,42.12,42.12,0,0,1,4.49.17C111.48,364.32,111.39,364,111.25,363.92Z" style="opacity:0.30000000000000004"></path><path d="M75.81,393.61c-1-3.94-6-6.16-12.57-6.65A17.11,17.11,0,0,0,47,395.31c-3.42,5.85-4.84,10.5-2.77,11.27s10.87,2,16.54,2.48,12.75-.51,17.37-4.82S81.22,394.52,75.81,393.61Z" style="fill:#009EF7"></path><path d="M75.81,393.61c-1-3.94-6-6.16-12.57-6.65A17.11,17.11,0,0,0,47,395.31c-3.42,5.85-4.84,10.5-2.77,11.27s10.87,2,16.54,2.48,12.75-.51,17.37-4.82S81.22,394.52,75.81,393.61Z" style="fill:#fff;opacity:0.30000000000000004"></path><path d="M76.06,393.09a17.32,17.32,0,0,0-7.06-.33,31.06,31.06,0,0,0-6.67,1.54,42,42,0,0,0-6.6,3c-1.11.6-2.2,1.25-3.26,1.93a23.45,23.45,0,0,0-2.93,2s0,.16,0,.13c1.07-.48,2.08-1.16,3.1-1.73s2.22-1.23,3.36-1.81A46.47,46.47,0,0,1,62.58,395a31,31,0,0,1,6.93-1.49,43,43,0,0,1,6.62.17C76.59,393.75,76.33,393.18,76.06,393.09Z" style="fill:#009EF7"></path><path d="M76.06,393.09a17.32,17.32,0,0,0-7.06-.33,31.06,31.06,0,0,0-6.67,1.54,42,42,0,0,0-6.6,3c-1.11.6-2.2,1.25-3.26,1.93a23.45,23.45,0,0,0-2.93,2s0,.16,0,.13c1.07-.48,2.08-1.16,3.1-1.73s2.22-1.23,3.36-1.81A46.47,46.47,0,0,1,62.58,395a31,31,0,0,1,6.93-1.49,43,43,0,0,1,6.62.17C76.59,393.75,76.33,393.18,76.06,393.09Z" style="opacity:0.30000000000000004"></path></g></g><g id="freepik--character-2--inject-16"><g id="freepik--character--inject-16"><g id="freepik--Bottom--inject-16"><g id="freepik--bottom--inject-16"><polygon points="409.24 404.14 406.35 402.91 409.08 401.98 409.24 404.14" style="fill:#263238"></polygon><path d="M381.66,410.93S414,394,414.51,396.22a3.3,3.3,0,0,1,.06,1.35s.06-.08.08-.12l-.37,4.23a9.9,9.9,0,0,1-5,2.46c0-.2-.11-1.45-.16-2.16a16.52,16.52,0,0,0-2.84,1.73c-2,1.53-3.27,4.08-5.36,7.08-1.53,2.19-4.4,3.34-8.71,4.2-4.64.93-8.8.27-10-.93A3.36,3.36,0,0,1,381.66,410.93Z" style="fill:#263238"></path><path d="M382.52,409.91c.3-.35,1.41-1.73,2.93-3.25,1.33-1.32,2.87-3,4.55-4.37a41.35,41.35,0,0,0,3.8-4.15,35.92,35.92,0,0,0,4.07-6.83c.46-1.17.79-2.55.51-6.86-.38-6-.62-7.37-.9-11.95l16.75-1.11c-.32,2.56-1,6.16-1.39,9.63-.45,4.39-1.87,4.88.08,9.17a13,13,0,0,1,1.54,3.83c.23,2.24-1.42,4.28-3.31,5.48-1.58,1-3.43,1.5-4.95,2.56a16.49,16.49,0,0,0-3.89,4.31c-1,1.5-1.84,3.25-3.35,4.35a14.4,14.4,0,0,1-5.29,2.18,28.45,28.45,0,0,1-7.24.78C383,413.61,380.34,412.49,382.52,409.91Z" style="fill:#ffbda7"></path><path d="M395.09,402.5a6.22,6.22,0,0,0-5.17-.18c-2.34,2.08-4.26,3.93-5.62,5.22-1.65,1.56-3.1,3-2.94,4.67.25,2.63,10.48,2.85,16,0a7.12,7.12,0,0,0,3.82-3.76S400.16,404.82,395.09,402.5Zm18.82-10.57c-1-1.65-1.34-2.5-1.34-2.5-1.92,1.2-5.08,6.36-3.22,11.27a7.55,7.55,0,0,0,4.8-3.69A4.78,4.78,0,0,0,413.91,391.93Z" style="fill:#37474f"></path><path d="M441,393.47c-.84,1.51.78,8.94.87,12.78.08,3.5.09,9.76,1.51,13.08,1.69,3.94,4.83,8.4,9.67,4.1,3-2.67,4.58-5.9,4.61-10.94,0-3.51-1.85-8.17-3.48-12.32-1.89-4.84-2.67-7.45-2.67-7.45Z" style="fill:#263238"></path><path d="M450,369.1c1,8.07,1,12.69,1.39,17.89a68,68,0,0,0,1.27,8.07c.71,3.32,2.12,7.76,2.82,9.86,1,2.93,1.67,4.77.83,8.24a4,4,0,0,1-.31.79c-1.33,2.93-5.12,5.4-6.41,5.18a2.32,2.32,0,0,1-2.17.94L447,420a3.6,3.6,0,0,1-.44-.12,4.08,4.08,0,0,1-2.31-2.35c-.09-.22-.18-.46-.26-.72a27,27,0,0,1-1.24-8.4c-.06-1.9-.35-5.2-.77-8.22s-2.7-11.3-4-15.84c-1-3.75-3.06-11.46-3.06-11.46Z" style="fill:#ffbda7"></path><path d="M456.57,408.75c-3.22-1-12.51-.14-13.63,4.09.28,3.87.69,6.33,3.58,9.43,3.83,4.13,8-1,9.5-4.2A14.63,14.63,0,0,0,456.57,408.75Z" style="fill:#37474f"></path><path d="M438.52,262.43c3.25,7.94,6.33,16.68,6.83,33.5.67,22.17,1.71,30.18,1.93,32.85.37,4.55,2.33,8.68,4.44,21.75s1,37.07,1,37.07a15.66,15.66,0,0,1-8.1,3.77c-4.61.68-6.64-1.13-6.64-1.13s-8.78-35.38-11-43.2-8.81-33.57-8.81-33.57l-2.61,21.65s2.61,6.82,1.85,18.43-4.86,33.36-4.86,33.36-2.46,1.88-7.45,1.63-7-2-7-2-4.47-43.11-5.21-56.18-2.58-47.48,2.19-68Z" style="fill:#455a64"></path><path d="M398.68,283.64c2.28,5.28,9.67,8.65,12.86,9.23l4.88,20.41-.85,21.84,2.61-21.65-5.57-24.9S403.83,288.44,398.68,283.64Zm29.75-4.34c.64,2.09,1.23,4.2,1.85,6.3s1.22,4.22,1.87,6.34a44.11,44.11,0,0,0-.81-6.59c-.41-2.17-.95-4.32-1.57-6.45a59.06,59.06,0,0,0-2.26-6.25,30.62,30.62,0,0,0-3.18-5.84c.78,2.08,1.49,4.14,2.17,6.22S427.82,277.2,428.43,279.3Zm3.48-4.3c.79,1.24,1.54,2.5,2.29,3.76l2.24,3.84a17.63,17.63,0,0,0-1.26-4.33,29.15,29.15,0,0,0-2.08-4,32.86,32.86,0,0,0-2.65-3.64,23.31,23.31,0,0,0-3.18-3.18c.73,1.32,1.52,2.57,2.3,3.82S431.15,273.75,431.91,275Zm.12,59.88c-1.64-6.7-2.93-13.49-4.21-20.29S425.32,301,424,294.17c.82,6.88,1.71,13.75,2.78,20.6s2.29,13.68,3.93,20.44,3.44,13.42,5.25,20.11,3.67,13.36,5.63,20q-2.16-10.17-4.57-20.28C435.39,348.32,433.71,341.57,432,334.88ZM397.69,314l.32-18.09c-.67,6-1.12,12-1.41,18.06s-.51,12.05-.26,18.15c.48,6.06,1.21,12,2,18s1.63,12,2.61,17.92q-.66-9-1.53-18l-.86-9c-.28-3-.6-6-.8-9s-.14-6-.13-9S397.66,317,397.69,314Z" style="fill:#37474f"></path></g></g><g id="freepik--Top--inject-16"><path d="M340.58,193.05c-.86-.39-1.22.43-.81,1.2,1,1.81,3.47,2.27,4.49,3.17.23.25,2.83,4,2.72,4.88-.83-.61-3.29-2.75-4.16-3.32a32.2,32.2,0,0,0-3.27-1.45,3.32,3.32,0,0,0-1.23-.39c-.3,0-.73.56-.34,1.28.7,1.28,2.42,1.62,3.62,2.44.6.38,2.41,1.71,2.72,3.13-1.84-1-3.12-1.21-6.19-1.6-.36,0-.46.12-.5.35a1.24,1.24,0,0,0,.47,1.06c.74.63,2,.72,3.27,1.19a8.75,8.75,0,0,1,3.36,2.52,3.79,3.79,0,0,1,.77,1.35,17.94,17.94,0,0,1,.37,1.94,6.56,6.56,0,0,0,5.36,5,.85.85,0,0,0,.5,0,.92.92,0,0,0,.43-.75c.54-2.92-.28-5.88-.71-8.81-.14-1-1.35-8.19-1.44-8.45s-6.55-3.49-6.76-3.56C342.6,194,341.4,193.43,340.58,193.05Z" style="fill:#f0997a"></path><path d="M394.49,219.55c-2.37.63-20.92,5.69-20.92,5.69s-12-9.77-14.38-12c-3.3-3.12-3.87-6.14-4.39-8.78-.76-3.79-1.26-4.09-2.66-5.53-.87-.89-2.74-3.28-2.81-3.37a3.45,3.45,0,0,0-1.09-.7L347,194.2c-1.2-.59-2-.88-3.18-1.47a6,6,0,0,0-1.15-.46.46.46,0,0,0-.26,0c-.16.06-.21.26-.21.43a3,3,0,0,0,1,2.13,10.18,10.18,0,0,0,2,1.32c.44.24.7.34,1.58.84a2.23,2.23,0,0,1,.82.88,26.89,26.89,0,0,1,2.7,5.18,9.69,9.69,0,0,1-3.82-3.41c-.86-1.37-2.23-.15-1.59,1.88.74,2.35,2.49,3,3.4,6.17s-2,5.33,1.12,8.39a32.1,32.1,0,0,1,5.05,5c2.52,3.39,10.37,13.91,12.19,15.77,4,4,4.57,3.82,15.63,1.29,15.61-3.56,18.4-4.54,18.4-4.54l7.48-16.36C404.08,217.17,402.48,217.42,394.49,219.55Z" style="fill:#ffbda7"></path><path d="M408.27,216.42c-2,.09-2.54.16-10.4,2.14s-24.17,6.36-24.17,6.36l-4.08-3.34a10.11,10.11,0,0,1-2.85,5.11,18,18,0,0,1-5.43,3.79l3.44,4.39c3.2,4.07,4.88,4.83,6.12,5.32s3-.05,6.44-.71S401.23,234,401.23,234Z" style="fill:#37474f"></path><path d="M350.32,203.05a11.17,11.17,0,0,1,2.26,2.07c.24.32.35-.61-.7-1.85s-2.13-1.39-2.32-1.89Z" style="fill:#f0997a"></path><path d="M447.47,181.06a4.46,4.46,0,0,0,1.11-4.56c-1.1-3.42-4.82-4.58-8-3.81a8,8,0,0,0-3.09-2.89,5.19,5.19,0,0,0-4.15-.26,3.84,3.84,0,0,0-2.46,3.23,2.57,2.57,0,0,1-1.06-2,4.37,4.37,0,0,0-1.42,2.72,18.46,18.46,0,0,0-16.13.93c-3.59,1.88-7.27,4.57-8.68,8.55-1.48,4.15,0,9.32,2.94,12.45a31.46,31.46,0,0,0,4.29,3.6l6.26,4.66a36.48,36.48,0,0,1,3.62,2.93,18.74,18.74,0,0,1,3.4,4.43c.19.34.43.74.82.78a1.16,1.16,0,0,0,.65-.18,33.34,33.34,0,0,0,9.59-6.91,20.93,20.93,0,0,0,5.19-9.44,19.89,19.89,0,0,0,.46-2.86h1a2.31,2.31,0,0,0,1.72-.58c.17-.15,1.19-1.52.81-1.73,1.63.94,3.66,1,4.63.15-.48-.13-2.63-.52-2.88-2a3.71,3.71,0,0,0,1.38-7.26Z" style="fill:#263238"></path><path d="M443.05,273.75c-1.8-7.61-4.12-12.42-4-14.08.57-7.21,3.13-16.56,4.05-20.71,2-9-2.16-17.48-4.16-19.42l-4.77-1.49c-1.56-.49-4.1-1-6.49-1.51-5.32-1.13-7.55-1.23-9.57-1.16-1,0-5.74.51-5.74.51-1.45.23-4.07.52-4.08.53a30.13,30.13,0,0,0-6.83,7.62c-2.6,4-4.16,7.35-5.19,16.17-1.3,11.24-2.89,23.81-3.44,31.68C401.79,278.28,430.51,279.94,443.05,273.75Z" style="fill:#f5f5f5"></path><g id="freepik--head--inject-16"><path d="M430.18,213.79c.06-1.83.29-8.62.29-8.62,0,.56,2.92,2.83,5.69.25s3.3-5.62,2.08-7.74c-1.35-2.35-4.93-2.66-6.78.69-1.15,1.15-2.84-.55-1.6-3.88.08-2.43-3.07-5.45-.73-9.3-6.3-5.36-14.15-6-18.75-2.9a40.74,40.74,0,0,0-3.25,13c-.67,8,1,12,3.37,13.67,1.59,1.1,3.11,1.5,6.1,1.61,0,0-.07,2-.09,3.19s-.55,1.45-1.81,1.71c-.85.18-3,.55-3,.55s-3.25,4.29,4.46,5.67c12.3,2.21,18-3.61,18-3.61s-.51-.21-2.42-.83C430,216.65,430.12,215.61,430.18,213.79Z" style="fill:#ffbda7"></path><path d="M416.6,210.54c5.39.1,10.69-1,12.18-3.32a4.84,4.84,0,0,1-2.61,3.66c-3.24,1.42-9.63,1.54-9.63,1.54Z" style="fill:#f0997a"></path><path d="M420.19,201.46l-4.86.93a2.42,2.42,0,0,0,2.84,2A2.59,2.59,0,0,0,420.19,201.46Z" style="fill:#b16668"></path><path d="M419.76,202.5a2.73,2.73,0,0,0-3,1.79,2.35,2.35,0,0,0,1.37.14,2.54,2.54,0,0,0,1.95-1.84C420,202.56,419.89,202.52,419.76,202.5Z" style="fill:#f0997a"></path><path d="M411.1,187.87l3.35-.42a1.62,1.62,0,0,0-1.82-1.49A1.78,1.78,0,0,0,411.1,187.87Z" style="fill:#263238"></path><path d="M424.74,188.91l-3.27-1a1.64,1.64,0,0,1,2.08-1.16A1.79,1.79,0,0,1,424.74,188.91Z" style="fill:#263238"></path><path d="M420.25,193.85a1.3,1.3,0,1,0,1.31-1.27A1.29,1.29,0,0,0,420.25,193.85Z" style="fill:#263238"></path><path d="M409.72,192.84a1.3,1.3,0,1,0,1.31-1.28A1.29,1.29,0,0,0,409.72,192.84Z" style="fill:#263238"></path><path d="M428.31,190.43l7.88,5.61a3.45,3.45,0,0,0-2.69.26l-5.68-4Z" style="fill:#455a64"></path><path d="M406,189.77c.48,1.07.18,2.92.62,4.14.38,2.41,4.45,4.21,6.93,2.12a5.14,5.14,0,0,0,1-1.25c.69-1.18.75-2.94,1.67-3,2.54,0-.37,6.34,6.48,6.73,3.32.24,4.32-2.83,4.93-5.32.23-.72.83-.79,1-1.69s-.55-1.26-1.27-1.36a21.33,21.33,0,0,0-6.7-.75c-2.13.33-2.92.91-4.07.76s-1.7-.91-3.58-1.76a18.68,18.68,0,0,0-6.68-1C405.31,187.48,405.57,189.24,406,189.77Zm13,1.43c1.62-1.48,6.51-1,7.42.21.49.71-.15,2.92-.56,3.94,0,.12-.11.24-.18.37a3.24,3.24,0,0,1-3.56,1.74,3.8,3.8,0,0,1-2.69-1.43,5.42,5.42,0,0,1-.43-4.83Zm-8.81-2.62c3.73.81,5.11,1.86,3.57,5.52-.59,1.76-3.29,2.42-5,1.27a4.22,4.22,0,0,1-1.59-3.25C406.87,189,407.13,188.22,410.23,188.58Z" style="fill:#455a64"></path><path d="M411.74,197.08l4.18,2.64,1.54-6.74a2.08,2.08,0,0,0-.42-.92Z" style="fill:#f0997a"></path></g><g id="freepik--Glass--inject-16"><path d="M388.45,288.15a1.05,1.05,0,0,1-.11-.07L336.22,254h0a3.79,3.79,0,0,1-1.56-3.55,12.08,12.08,0,0,1,5.69-9.38,3.93,3.93,0,0,1,3.91-.33h0l55.3,28.89.1.06.2.1a10.67,10.67,0,0,1,3.74,14.76,11,11,0,0,1-15,3.76Z" style="fill:#009EF7"></path><path d="M340.35,241c3.08-1.7,5.53-.26,5.47,3.22a12.12,12.12,0,0,1-5.69,9.38c-3.08,1.7-5.53.26-5.47-3.22A12.08,12.08,0,0,1,340.35,241Z" style="opacity:0.25"></path><path d="M393.62,274l-48.51-26.44a10.1,10.1,0,0,0,.71-3.32,3.79,3.79,0,0,0-1.54-3.54l55.28,28.88.1.06.2.1a10.67,10.67,0,0,1,3.74,14.76C404.6,281.19,400,277.51,393.62,274Z" style="opacity:0.1"></path><path d="M318.41,238.33a7.29,7.29,0,0,1,3.44-5.67,2.38,2.38,0,0,1,2.36-.2h0l18.46,10.85h0a2.29,2.29,0,0,1,.94,2.15,7.29,7.29,0,0,1-3.44,5.67,2.38,2.38,0,0,1-2.36.2l-18.46-10.85h0A2.28,2.28,0,0,1,318.41,238.33Z" style="fill:#e0e0e0"></path><path d="M334.36,238.42l-6.86-4q-1.49,4.62-3.3,8.94l6.75,4C332.2,244.41,333.34,241.44,334.36,238.42Z" style="opacity:0.25"></path><path d="M335.62,164.11l-11.72-6.7c-8.86-5.12-21.13-4.38-34.68,3.43-27.09,15.65-49.05,53.68-49.05,85,0,15.64,5.5,26.62,14.38,31.75l11.68,6.68A25.2,25.2,0,0,0,279,287.5c6.59,0,14-2.15,21.9-6.7,27.09-15.63,49-53.67,49-85C350,180.22,344.48,169.23,335.62,164.11ZM273,208c8.6-14.88,19.9-26.87,31.84-33.76,6.25-3.62,12.34-5.57,17.62-5.65a19.16,19.16,0,0,1,2.7.12c3.73,4.68,5.77,11.8,5.77,20.86,0,13.78-4.73,29.57-13.32,44.45s-19.9,26.87-31.83,33.75c-6.42,3.71-12.64,5.66-18,5.66a19.39,19.39,0,0,1-2.31-.13,19.7,19.7,0,0,1-1.85-2.77c-2.55-4.54-3.93-10.66-3.93-18.09C259.65,238.7,264.38,222.92,273,208Z" style="fill:#455a64"></path><path d="M253,200.22l18.43,10.58c.5-.92,1-1.84,1.55-2.76a112.31,112.31,0,0,1,8.87-13.15l-18.48-10.6A117.63,117.63,0,0,0,253,200.22Zm22.32-29q-3.42,3.15-6.61,6.7l18.58,10.66A85.64,85.64,0,0,1,294.1,182Z" style="fill:#fff;opacity:0.1"></path><path d="M266.17,284.2l-11.62-6.64c-8.88-5.13-14.37-16.11-14.37-31.75,0-.6,0-1.2,0-1.81l11.68,6.68q0,.9,0,1.8C251.86,268.08,257.33,279.06,266.17,284.2Z" style="fill:#37474f"></path><path d="M337,175.78a16.49,16.49,0,0,0-11.87-7c3.73,4.68,5.77,11.8,5.77,20.86,0,13.78-4.73,29.57-13.32,44.45s-19.9,26.87-31.83,33.75c-6.42,3.71-12.64,5.66-18,5.66a19.39,19.39,0,0,1-2.31-.13A16.45,16.45,0,0,0,278,279.68c.33,0,.67,0,1,0,5.37,0,11.6-1.95,18-5.65,11.93-6.89,23.23-18.88,31.83-33.76s13.32-30.67,13.32-44.45C342.17,187.29,340.35,180.46,337,175.78Z" style="fill:#263238"></path><path d="M300.91,167.53c-27.09,15.64-49.05,53.68-49.05,85s22,43.95,49.05,28.31,49-53.67,49-85S328,151.89,300.91,167.53ZM297,274.06c-6.41,3.7-12.64,5.65-18,5.65a16.87,16.87,0,0,1-15.43-9.14c-2.56-4.54-3.93-10.66-3.93-18.09,0-13.78,4.73-29.56,13.33-44.44s19.89-26.87,31.83-33.76c6.25-3.62,12.34-5.57,17.62-5.65h.39c12.12,0,19.35,10.18,19.35,27.23,0,13.78-4.73,29.57-13.32,44.45S309,267.17,297,274.06Z" style="fill:#37474f"></path><path d="M263.76,208.64a113.49,113.49,0,0,0-10,27.87,79,79,0,0,0-1.67,14.7,54.71,54.71,0,0,0,1.61,14.65,32.6,32.6,0,0,0,6.5,13.08,23.58,23.58,0,0,0,12.32,7.6,30.81,30.81,0,0,0,14.63-.22,52.61,52.61,0,0,0,13.72-5.52,52.52,52.52,0,0,1-13.65,5.79,31.09,31.09,0,0,1-14.79.33,24,24,0,0,1-12.6-7.67A32.81,32.81,0,0,1,253.18,266a55.52,55.52,0,0,1-1.54-14.8,80.55,80.55,0,0,1,1.78-14.77,102.33,102.33,0,0,1,4.18-14.27A121.07,121.07,0,0,1,263.76,208.64Z" style="fill:#455a64"></path><path d="M322.82,168.62a18.67,18.67,0,0,1,7.19,1.32,16.81,16.81,0,0,1,6,4.26,22.3,22.3,0,0,1,3.86,6.3,32.73,32.73,0,0,1,2,7.12,56.91,56.91,0,0,1,.41,14.75,80.28,80.28,0,0,1-2.74,14.5,95.06,95.06,0,0,1-5.06,13.87,113,113,0,0,1-6.93,13,101.46,101.46,0,0,1-18.81,22.71,71.22,71.22,0,0,1-12.07,8.59,41.45,41.45,0,0,1-14,5.05,22.73,22.73,0,0,1-7.54-.08,16.94,16.94,0,0,1-6.94-3.06,16.71,16.71,0,0,1-2.79-2.59,20.11,20.11,0,0,1-2.19-3.09,27.27,27.27,0,0,1-2.79-6.95,49.22,49.22,0,0,1-1.24-14.75A76.23,76.23,0,0,1,261.52,235a94.84,94.84,0,0,1,4.77-13.92A108.08,108.08,0,0,1,273,208a106.32,106.32,0,0,0-10.72,27.18,75,75,0,0,0-2,14.44,48,48,0,0,0,1.41,14.39,26.25,26.25,0,0,0,2.75,6.6,17.69,17.69,0,0,0,4.66,5.26,15.5,15.5,0,0,0,6.4,2.78,21.23,21.23,0,0,0,7.07,0A40.46,40.46,0,0,0,296,273.79a70.88,70.88,0,0,0,11.76-8.47A100,100,0,0,0,326.38,243a110,110,0,0,0,12.05-26.49,80.63,80.63,0,0,0,2.91-14.27,56.53,56.53,0,0,0-.19-14.53,32.68,32.68,0,0,0-1.83-7,22,22,0,0,0-3.63-6.25,16.6,16.6,0,0,0-5.77-4.32A18.54,18.54,0,0,0,322.82,168.62Z" style="fill:#455a64"></path><path d="M328.46,169.45a18.62,18.62,0,0,0-5.64-.83h-.39c-5.28.08-11.37,2-17.62,5.65C292.87,181.17,281.57,193.16,273,208s-13.32,30.66-13.32,44.44c0,7.43,1.38,13.55,3.93,18.09a18.45,18.45,0,0,0,4.27,5.26,18.52,18.52,0,0,0,5.64.84c5.38,0,11.6-1.95,18-5.66,11.93-6.88,23.24-18.88,31.83-33.76s13.32-30.67,13.32-44.45C336.65,182,333.72,173.89,328.46,169.45Z" style="fill:#fff;opacity:0.30000000000000004"></path></g><g id="freepik--arm--inject-16"><path d="M439.36,220.17c6.41,2.6,7.88,8.87,4.33,15.9-3.12,6.16-15.45,21.3-17.4,23.77s-3.54,3.3-8.45,5.21-17.9,5.49-21.69,6.62-6.23,3.26-9.84,4.83-8.53,1.35-11,.88a5.85,5.85,0,0,1-3.1-2.31c-1.72-.49-1.94-1.2-1.81-1.8-1.53-.25-2.18-.66-1.59-1.71,1.24-2.19,5.37-1.77,9.15-2.52,3.62-.73,6.48-2.23,5.58-2.72-1.83-1-4.88.12-7.63-1.52-1.62-1-1.31-2.39-.53-2.36,1.44.07,4.29-.81,7.83-.89,3.22-.07,7.23,1.28,9.59.37,5.55-2.12,22.21-10.3,22.21-10.3L429,231S432.9,222.43,439.36,220.17Z" style="fill:#ffbda7"></path><path d="M409.2,254.44l5.61-3.09,13.42-20.51s5.12-10,10.73-11.31c5,2.1,6.14,4.26,6.79,6.69.41,1.52.74,6.43-3.71,13.75s-13.56,17.59-15.52,20.1-2.2,2.74-5.78,4.07-6.23,2.08-6.23,2.08C411,263.06,409,259.26,409.2,254.44Z" style="fill:#37474f"></path></g></g></g></g><g id="freepik--character-1--inject-16"><g id="freepik--character--inject-16"><g id="freepik--bottom--inject-16"><path d="M247.56,421.46,253.37,410l11.71,6.85-14.43,17s-7.15-.67-8.3-4.4S245.59,422.7,247.56,421.46Z" style="fill:#ffa8a7"></path><path d="M239.31,426a6.08,6.08,0,0,0-1.62,1.77c-.47.7-.32,4.09-.77,5.67s-.8,2-1.55,4c-.84,2.19-2.38,4.18-.64,9.8s4.54,8.3,6.89,9.67a6.22,6.22,0,0,0,2.84.69s3.08-1.17,2.61-3S239.31,426,239.31,426Z" style="fill:#263238"></path><path d="M252.85,432.13a6.79,6.79,0,0,1-1.22,1.94,15.21,15.21,0,0,0-2,5.61c-1.82,8.89,1.71,13.41-3.07,16.75-1.39.87-4.26.63-8.64-5-2.23-2.86-3.5-8.75-2.63-11.42s2.06-4.4,2.62-6.45.27-5.87,1.4-7.63a8.31,8.31,0,0,1,2.78-2.39c.85-.52,2.71-1.19,3.57-1.69s1.34-1.05,1.9-.42l-1,1.23c-1.56,2.16-1.12,2.48-1.09,3.63a17.76,17.76,0,0,1-.58,3.66c1.11-1.4,1.57-2.62,2.78-2.41s1.35.16,3.09,1.79S252.93,431.61,252.85,432.13Z" style="fill:#455a64"></path><path d="M237.92,451.46c-2.23-2.86-3.5-8.75-2.63-11.42a24.8,24.8,0,0,1,1-2.58c0,.18-.09.36-.11.52-.06.34-.1.69-.13,1a7.9,7.9,0,0,0,.44,4c.5,1.11,1.66,3.89,3.16,3.95.85,0,1.56-.79,1.89-1.74.13-.4.36-1.48.36-1.48a13.25,13.25,0,0,1,3.89,1.59c2.17,1.43,2.09,1.75,2.09,1.75a5.74,5.74,0,0,0-.07,1.91,4.7,4.7,0,0,0,.81,1.89,2.86,2.86,0,0,0,.55.45,5.78,5.78,0,0,1-2.63,5.06C245.17,457.3,242.3,457.06,237.92,451.46Z" style="fill:#37474f"></path><path d="M249.63,439.68a30.21,30.21,0,0,0-.56,7.11c-.81,2.28-1.53,2.21-1.63,1s1.48-6.08,2.65-10.12C249.91,438.37,249.76,439,249.63,439.68Z" style="fill:#37474f"></path><path d="M244.22,425.43a5,5,0,0,1,.87-3.26l.57-.29c.94-.53,1.34-1.05,1.9-.42l-1,1.23c-1.56,2.16-1.12,2.48-1.09,3.63a17.76,17.76,0,0,1-.58,3.66c-.9,3.86-1.73,5.15-2.16,8.8s.31,6.1-.21,6.3-1.55-.21-1.74-3.13,1.1-7.83,2-10.16S244.4,427,244.22,425.43Z" style="fill:#37474f"></path><path d="M241.66,444a.44.44,0,0,0,.19.1,8.72,8.72,0,0,1,5.83,3.41.36.36,0,0,0,.55-.47,9.36,9.36,0,0,0-6.23-3.65.36.36,0,0,0-.43.28A.36.36,0,0,0,241.66,444Z" style="fill:#ebebeb"></path><path d="M242.12,441a.45.45,0,0,0,.19.11,9.8,9.8,0,0,1,6.14,3.72.36.36,0,0,0,.52.05.37.37,0,0,0,0-.53,10.48,10.48,0,0,0-6.54-4,.36.36,0,0,0-.44.28A.37.37,0,0,0,242.12,441Z" style="fill:#ebebeb"></path><path d="M242.06,437.65a.43.43,0,0,0,.2.11,11.09,11.09,0,0,1,6.86,4.19.41.41,0,0,0,.58,0,.4.4,0,0,0,.05-.58,11.88,11.88,0,0,0-7.3-4.45.42.42,0,0,0-.5.3A.45.45,0,0,0,242.06,437.65Z" style="fill:#ebebeb"></path><path d="M242.55,434.79a.4.4,0,0,0,.19.11,10.77,10.77,0,0,1,6.71,4.09.41.41,0,0,0,.62-.53,11.62,11.62,0,0,0-7.15-4.35.4.4,0,0,0-.48.3A.41.41,0,0,0,242.55,434.79Z" style="fill:#ebebeb"></path><path d="M243.59,432a.49.49,0,0,0,.2.11,10.8,10.8,0,0,1,6.71,4.09.4.4,0,1,0,.62-.52,11.66,11.66,0,0,0-7.15-4.36.41.41,0,0,0-.48.31A.41.41,0,0,0,243.59,432Z" style="fill:#ebebeb"></path><polygon points="250.72 422.38 258.3 428.57 262.58 431.26 257.69 440.51 243.9 433.91 250.72 422.38" style="fill:#ffa8a7"></polygon><path d="M232.6,381.54s30.26-5.11,42.06-5c12,.08,13.16,9.12,10.15,14.66C279,401.77,259,424.26,259,424.26s-6.74-3.09-8.81-8.92l4.58-10.49-14.4,4.61L233,404.52l-.6-3.75Z" style="fill:#009EF7"></path><path d="M232.6,381.54s30.26-5.11,42.06-5c12,.08,13.16,9.12,10.15,14.66C279,401.77,259,424.26,259,424.26s-6.74-3.09-8.81-8.92l4.58-10.49-14.4,4.61L233,404.52l-.6-3.75Z" style="opacity:0.4"></path><path d="M232.6,381.54,187.53,389s-.47,11.43,4,21.67a23.35,23.35,0,0,0,17.86,13.64,133.06,133.06,0,0,0,14.44,1.17,36.18,36.18,0,0,0,7.55,4.44c3.8,1.51,20.43,8.48,20.43,8.48s4.67-4,4.2-12.19l-15.7-16.7c-3.55-4.34-4.8-5.73-6.77-6.71C234.57,389,233.63,387.35,232.6,381.54Z" style="fill:#009EF7"></path><path d="M232.6,381.54,187.53,389s-.47,11.43,4,21.67a23.35,23.35,0,0,0,17.86,13.64,133.06,133.06,0,0,0,14.44,1.17,36.18,36.18,0,0,0,7.55,4.44c3.8,1.51,20.43,8.48,20.43,8.48s4.67-4,4.2-12.19l-15.7-16.7c-3.55-4.34-4.8-5.73-6.77-6.71C234.57,389,233.63,387.35,232.6,381.54Z" style="opacity:0.30000000000000004"></path><g style="opacity:0.30000000000000004"><path d="M257.14,395.91A104.27,104.27,0,0,0,251.06,406l3.68-1.17c4.15-9.88,5-12.76,11.62-17.39C266.36,387.46,261.61,389.25,257.14,395.91Z"></path><path d="M220.34,419.89s2.52,3.65,10.66,7.1c4.57,1.94,18.73,7.48,23,8.49a11.51,11.51,0,0,1-2.2,2.87s-16.62-7-20.42-8.48a21.36,21.36,0,0,1-2.42-1.14c-.35-.18-.69-.37-1-.56-.85-.49-1.62-1-2.27-1.42s-1.15-.8-1.47-1l-.32-.24,0,0C220.29,422.32,220.34,419.89,220.34,419.89Z"></path><path d="M238,406.66c1.6,1.88,2.37,2.8,2.37,2.8l2.3-.76s-4.08-4.45-6.72-6.78a8.31,8.31,0,0,0-1.51-1.19c1.33-3.49,1.28-9.22,1.28-9.22a18.4,18.4,0,0,1-3.48,8.38,15.32,15.32,0,0,0-6.63-.08c-4.62.77-18,3.05-18,3.05s12.83-1.15,19.51-1.41S236.36,404.77,238,406.66Z"></path></g><path d="M280,436.08c3.25,1.28,5.25,2.57,6.75,4.52s2,3.95.53,6.32-4,5.16-7.14,5a16.92,16.92,0,0,1-7.9-2.52Z" style="fill:#263238"></path><path d="M254,438.82c0,1,4,2.91,8.31,4.95,4.56,2.17,5.69,3.59,9.41,5.42,4.26,2.1,5.87,2.22,9.18,1.3s7.37-5.65,4.53-10c-2.31-3.55-5.31-4.52-9.85-5.72A83.19,83.19,0,0,1,265,431.34c-3.29-1.27-6-3.56-6.67-2.77.46.23,3.9,2.35,3.25,2.93-.16.29-.65.2-1.49-.15a1.47,1.47,0,0,0-1.18-.06,2.24,2.24,0,0,0-.85,1,23.43,23.43,0,0,0-1,2.6c-.26.6-.15.25-.39.86a6.65,6.65,0,0,0-.7,2.33c0,.37.31.49.6.68s.7.4,1,.61c.11.09.3.36.24.51s-.7.12-.94,0-.66-.2-1-.32S254.78,439.17,254,438.82Z" style="fill:#455a64"></path><path d="M270.29,448.49c.61.31,4.47,2.1,5.69,1s-1.79-3-1.79-3-.47-2.91,3-7.2c.61.47,3.15.45,3.12-1.05s-4.29-3.33-4.35-3.35c4.35,1.16,7.22,2.17,9.46,5.61,2.84,4.34-1.23,9.07-4.53,10s-4.92.8-9.18-1.3C271.32,449,270.66,448.71,270.29,448.49Z" style="fill:#37474f"></path><path d="M274.61,446.2c1.61.54.5,2-1.86,1.53-3.54-.72-6.47-2.72-10.41-4-4.26-2-8.59-3.92-8.31-5,.76.28,2.39,1,2.39,1,.32.14,1.14.44,1.14.44,3.23,1.4,6.79,3.64,10.28,4.58C270.92,445.59,273,445.66,274.61,446.2Z" style="fill:#37474f"></path><path d="M277,439.84c-1.47-.85-1.73-1.58-4.62-2.91s-7.78-4.17-10.8-5.93a36.72,36.72,0,0,1-3.28-2.43c.5-.57,2.34,0,4.18,1.12s3,1.9,4.8,2.85c3.55,2.14,7.59,3.58,9.62,4.88S278.47,440.69,277,439.84Z" style="fill:#37474f"></path><path d="M277.22,439.45a.38.38,0,0,1-.09.13,13,13,0,0,0-2.76,7.14.43.43,0,0,1-.4.4.36.36,0,0,1-.33-.41,13.58,13.58,0,0,1,3-7.69.33.33,0,0,1,.51,0A.41.41,0,0,1,277.22,439.45Z" style="fill:#f0f0f0"></path><path d="M274.36,437.36a.42.42,0,0,1-.08.12,17.71,17.71,0,0,0-3.41,8.43.43.43,0,0,1-.42.38.35.35,0,0,1-.31-.42,18.19,18.19,0,0,1,3.64-8.93.35.35,0,0,1,.52,0A.41.41,0,0,1,274.36,437.36Z" style="fill:#f0f0f0"></path><path d="M268.06,445.61a.42.42,0,0,1-.34.25.35.35,0,0,1-.36-.38c.17-5.17,3.5-10,3.66-10.19a.33.33,0,0,1,.51,0,.43.43,0,0,1,0,.57s-3.25,4.78-3.4,9.59A.53.53,0,0,1,268.06,445.61Z" style="fill:#f0f0f0"></path><path d="M265.41,443.92a.4.4,0,0,1-.33.25.33.33,0,0,1-.36-.37,15.26,15.26,0,0,1,3.85-9.67.35.35,0,0,1,.52,0,.46.46,0,0,1-.07.58,14.6,14.6,0,0,0-3.57,9A.39.39,0,0,1,265.41,443.92Z" style="fill:#f0f0f0"></path><path d="M262,442.47a.39.39,0,0,1-.32.25.34.34,0,0,1-.37-.37c0-5.37,3.8-9.53,4-9.7a.34.34,0,0,1,.52,0,.42.42,0,0,1-.06.57s-3.68,4.06-3.7,9A.41.41,0,0,1,262,442.47Z" style="fill:#ebebeb"></path></g><g id="freepik--top--inject-16"><g id="freepik--arm--inject-16"><path id="freepik--arm--inject-16" d="M221.87,333.56c7.54,0,10.09,4.43,10.76,8.56.77,4.75,1.54,16.23,1.54,16.23L245,367.11l-6.61,8.79s-8.34-4.32-11.64-6.3c-4-2.41-3.87-4.13-4.3-10.66S221.49,337.3,221.87,333.56Z" style="fill:#ffa8a7"></path></g><path d="M187.11,396.74c-.46-8.92.14-19,1.83-33.14.55-4.52,2.53-23.2,3.72-26.58l9-2.33s7.78-.81,17.4-1.09l2.83,0c.6.63,9.19,7.68,11.86,15.34,1.52,4.36,2,11.71-3.15,15.52,0,0-.76,7.63-.77,7.69s4.69,7.29,5.47,9c-1.18,7.53-10.19,14.19-23,16.85C197,401.14,188.06,397.32,187.11,396.74Z" style="fill:#009EF7"></path><path d="M220.31,368.53s-3.68,4.45-10.89,3.57a13.34,13.34,0,0,1-10.23-6.76s1,7.75,9.9,8.84A10.75,10.75,0,0,0,220.31,368.53Z" style="opacity:0.30000000000000004"></path><g id="freepik--Laptop--inject-16"><path d="M212.67,405.32l.05.85a2.43,2.43,0,0,0,1.34,2L237.9,419.9a2.38,2.38,0,0,0,1.23.24,2.35,2.35,0,0,0,1.18-.4l40.55-27.07a2.41,2.41,0,0,0,1.07-2.17l0-.59L239,418.54Z" style="fill:#ebebeb"></path><path d="M281.89,389.91,256,377.12a1.45,1.45,0,0,0-1.44.09l-41.72,27.86a.32.32,0,0,0,0,.55L239,418.54Z" style="fill:#fafafa"></path><polygon points="238.65 416.43 224.67 409.54 262.59 384.22 276.64 391.07 238.65 416.43" style="fill:#e0e0e0"></polygon><polygon points="230.62 395.24 230.88 395.37 237.73 398.75 249.04 391.2 249.27 391.05 242.16 387.54 230.62 395.24" style="fill:#e0e0e0"></polygon><polygon points="230.88 395.37 237.73 398.75 249.04 391.2 242.18 387.82 230.88 395.37" style="fill:#e6e6e6"></polygon><path d="M239,418.54l.11,1.6a2.35,2.35,0,0,0,1.18-.4l40.55-27.07a2.41,2.41,0,0,0,1.07-2.17l0-.59Z" style="fill:#ebebeb"></path><g style="mix-blend-mode:multiply;opacity:0.5"><path d="M239,418.54l.11,1.6a2.35,2.35,0,0,0,1.18-.4l40.55-27.07a2.41,2.41,0,0,0,1.07-2.17l0-.59Z" style="fill:#e0e0e0"></path></g><path d="M270.36,384.91c-1.32-1.9-2.95-3.59-4.13-5.58a34,34,0,0,0-3.86-3.52c-4-2.93-5-2.87-10-4.56a21.93,21.93,0,0,1-7.36-4.14l-6.61,8.79c.74.43,1.45.87,2.14,1.31,1.12.72,2.56,3.28,5.12,4.29,3.39,1.34,7.41.52,7.78,1.52a6.66,6.66,0,0,0,.23,1.85,6.48,6.48,0,0,0-2-.55c-.63,0-1.54.71-1.36,1.15s.57.61,1,1,1.35,1.13,1.5,1.22a6.09,6.09,0,0,0,3.18.56,1.41,1.41,0,0,0,1.06-.9,5.06,5.06,0,0,0,.73.27,1.9,1.9,0,0,0,1.39-.06,1.15,1.15,0,0,0,.46-.66,5.61,5.61,0,0,0,1.68-.31c.76-.41.79-1.35.94-2.09a9.2,9.2,0,0,0,.14-2.82c2.26,1.43,4,4,6.75,4.58C270.14,386.39,271.42,386,270.36,384.91Z" style="fill:#ffa8a7"></path><g id="freepik--arm--inject-16"><path d="M178.19,376.14c1.18-11,2.32-21,4.05-29,.95-4.45,4.06-9.2,10.42-10.1,6.15,3.8,4.44,16.63,3.81,19.76l-3.41,19.38s3.84,3,9.46,6.54c4.74,3,7.86,5.48,13.25,5.76s7.54,0,10.41,1c1.53.55,5,1.82,6.21,2.33s3.4,2.46,5.41,3.75-.3,2.26-1.73,1.94a18,18,0,0,1-4.34-1.76,23.24,23.24,0,0,0-3.7-1.14,21.31,21.31,0,0,1,1.05,4.16c0,.77.28,1.69-.35,2.3a6,6,0,0,1-1.56.77,1.18,1.18,0,0,1-.27.76,1.92,1.92,0,0,1-1.35.44,5.41,5.41,0,0,1-.79-.06,1.38,1.38,0,0,1-.79,1.16,6.06,6.06,0,0,1-3.27.33c-.17-.05-1.43-.63-1.8-.79a3.28,3.28,0,0,1-1.26-.68c-.29-.38.4-1.36,1-1.5a6.67,6.67,0,0,1,2.1,0,6.87,6.87,0,0,1-.73-1.76c-.63-.87-4.68.33-8.36-.06-2.79-.3-4.95-2.78-6.23-3.26-8.16-3-12.86-4.26-21.19-8.56C176.65,383.89,177.57,381.86,178.19,376.14Z" style="fill:#ffa8a7"></path><path d="M228.76,394.76c-.49-1-1.22-2.21-2-2.44a9.21,9.21,0,0,1,1.3,2.24Z" style="fill:#f28f8f"></path><path d="M227.17,401.79a9.16,9.16,0,0,0-.08-2.28,20.75,20.75,0,0,0-.44-2.22,9.91,9.91,0,0,0-.76-2.16,4.23,4.23,0,0,0-1.48-1.73,3.45,3.45,0,0,1,.68.88,7,7,0,0,1,.49,1,15.26,15.26,0,0,1,.64,2.12c.19.73.36,1.46.54,2.18A20.66,20.66,0,0,1,227.17,401.79Z" style="fill:#f28f8f"></path><path d="M224.76,402.93a10.41,10.41,0,0,0-.14-2.23,20.17,20.17,0,0,0-.48-2.18,15.55,15.55,0,0,0-.75-2.11,4.27,4.27,0,0,0-1.27-1.83,2.63,2.63,0,0,1,.57.93c.14.33.27.68.39,1,.23.7.44,1.4.64,2.11C224.12,400.05,224.49,401.47,224.76,402.93Z" style="fill:#f28f8f"></path><path d="M218.66,401.45a4,4,0,0,1,.93.07c.3.05.52.19.9.28l-.17-.23a1,1,0,0,0,.09.44,1.37,1.37,0,0,0,.89.7,3.13,3.13,0,0,1-.41-.55,1.19,1.19,0,0,1-.12-.29.76.76,0,0,1,0-.25v-.17l-.18-.06a2.77,2.77,0,0,0-.88-.13A2,2,0,0,0,218.66,401.45Z" style="fill:#f28f8f"></path></g><path d="M239.72,418.85a2.85,2.85,0,0,0,2.45-.35l40.38-27a2.87,2.87,0,0,0,1.26-2.08l2.8-27.7a2.44,2.44,0,0,0,0-.47,2.84,2.84,0,0,0-1-2l-42,28a2.15,2.15,0,0,0-.93,1.54Z" style="fill:#009EF7"></path><g style="opacity:0.7000000000000001"><path d="M239.72,418.85a2.85,2.85,0,0,0,2.45-.35l40.38-27a2.87,2.87,0,0,0,1.26-2.08l2.8-27.7a2.44,2.44,0,0,0,0-.47,2.84,2.84,0,0,0-1-2l-42,28a2.15,2.15,0,0,0-.93,1.54Z" style="fill:#fff"></path></g><path d="M239,418.54l.3.15a2.78,2.78,0,0,0,.4.16l3-30a2.15,2.15,0,0,1,.93-1.54l42-28a3,3,0,0,0-.61-.41L243,387a2.07,2.07,0,0,0-.93,1.54Z" style="fill:#fafafa"></path><path d="M261.71,392c.18-1.85,1.92-4.41,3.87-5.71s3.38-.86,3.19,1A9.28,9.28,0,0,1,264.9,393C263,394.32,261.52,393.88,261.71,392Z" style="fill:#009EF7"></path></g><path d="M197.34,302.17c-.05.21-1.26.83-1.48,1a6.92,6.92,0,0,0-1.14,1.28,9.41,9.41,0,0,0-1.31,3.44,61.69,61.69,0,0,0-.57,6.22,40.36,40.36,0,0,1-1.21,5.94,20.55,20.55,0,0,0-.84,5.26,6.89,6.89,0,0,0,1.86,4.86,11.57,11.57,0,0,1,.14-5.33,10.62,10.62,0,0,0,.59,3.27,7.74,7.74,0,0,0,3.54,3.74,20,20,0,0,0,5,1.71,35.8,35.8,0,0,0,8.49,1,51.91,51.91,0,0,0,5.28-.3,15.12,15.12,0,0,0,6.51-1.86,6.38,6.38,0,0,0,3.24-5.63,6.55,6.55,0,0,1,.82,3.65,7.18,7.18,0,0,0,1.85-5,12.64,12.64,0,0,0-1.36-5.27,23.79,23.79,0,0,1-1.45-3.17,4.42,4.42,0,0,1-.06-3.1c.32-.64.84-1.22,1.18-1.88a11.72,11.72,0,0,0,1.46-5.81c-.2-4.17-2.53-9.66-10.09-11.54C211.44,293.12,199.24,294,197.34,302.17Z" style="fill:#263238"></path><g id="freepik--head--inject-16"><g id="freepik--head--inject-16"><g id="freepik--head--inject-16"><path d="M200.26,323.67a4.8,4.8,0,0,1-4.21-1.78c-2.15-2.53-2.25-5-1.13-6.62.92-1.32,3.08-2.09,4.53-1.11s1.57,1.85,2.13,3,2.13.34,1.81-4.14c3.15-1.29,2.87-6.41,4.63-8.41,2.76-3.14,7-2.11,8.4-1.28a5.69,5.69,0,0,1,5.89-.12c2,1.18,3.32,3.54,3.71,11.48s-1.24,13.4-3.21,15a9.33,9.33,0,0,1-6.69,1.52l-.12,3s8,8.9-2.63,7.67a16.8,16.8,0,0,1-11.76-7.23l.46-12.22S201.86,323.44,200.26,323.67Z" style="fill:#ffa8a7"></path><path d="M217.78,323a2.37,2.37,0,0,1-2.87,1.71,2.33,2.33,0,0,1-1.75-2.82Z" style="fill:#b16668"></path><path d="M213.12,322.64a2.34,2.34,0,0,0,1.79,2.06,2.36,2.36,0,1,0-1.79-2.06Z" style="fill:#f28f8f"></path><path d="M224,309.52l-3-1.13a1.57,1.57,0,0,1,2-1A1.66,1.66,0,0,1,224,309.52Z" style="fill:#263238"></path><path d="M212.66,308.14l-3.12,1.49a1.62,1.62,0,0,1,.74-2.26A1.83,1.83,0,0,1,212.66,308.14Z" style="fill:#263238"></path><path d="M227.79,310.52l-.61-.07a18.44,18.44,0,0,0-6,.19c-1.91.56-2.58,1.18-3.65,1.19s-1.88-.63-4-1.19a21.49,21.49,0,0,0-6.47-.18l-.64.07a1,1,0,0,0-.7,1,2.37,2.37,0,0,0,.65,1.19,1.44,1.44,0,0,1,.22.48,21.4,21.4,0,0,0,.87,3.29,4.54,4.54,0,0,0,.86,1.18,3.65,3.65,0,0,0,.43.35l.25.15a3.76,3.76,0,0,0,.73.33l.12,0,.2.05.2.05a6.12,6.12,0,0,0,.64.1l.28,0h.34c2.66,0,3.74-1.2,4.36-2.45s.42-3,1.65-3h.11l.11,0c.91.2.84,1.81,1.44,3a4.75,4.75,0,0,0,.9,1.27,2,2,0,0,0,.21.2l.11.09.12.09.1.07.12.08.09.05.07,0a4,4,0,0,0,1.06.4l.1,0a6.32,6.32,0,0,0,1.3.12,3.61,3.61,0,0,0,3.69-2.28,20.28,20.28,0,0,0,.68-3.29,1,1,0,0,1,.21-.43,2.07,2.07,0,0,0,.53-1.21A1,1,0,0,0,227.79,310.52Zm-12.62,4.65a3.54,3.54,0,0,1-.88,1.74h0a3.74,3.74,0,0,1-2.87,1,3.36,3.36,0,0,1-2.81-1.27.94.94,0,0,1-.09-.12l-.09-.12-.07-.12-.06-.1,0-.09a.25.25,0,0,1,0-.07l-.06-.13h0a2.75,2.75,0,0,1-.15-.36h0c0-.08,0-.15-.08-.22s-.07-.25-.09-.35l0-.07,0-.06c-.23-.87-.51-2.58-.06-3a5.33,5.33,0,0,1,3.62-.6l.21,0a6.91,6.91,0,0,1,.91.15l.35.08c.31.08.61.17.89.27l.27.11.29.13.06,0,.11.06a1.7,1.7,0,0,1,.6.45A3.75,3.75,0,0,1,215.17,315.17Zm11.51-.37a3.56,3.56,0,0,1-1.79,2.78,3.48,3.48,0,0,1-1.47.31,3.36,3.36,0,0,1-3-1.3h0l-.06-.08-.06-.1,0,0-.08-.13-.08-.16a.59.59,0,0,0,0-.08l0-.05,0-.06a.08.08,0,0,0,0-.05,4.64,4.64,0,0,1-.2-.65,4,4,0,0,1,0-2.63,5.43,5.43,0,0,1,3.21-1.29,7.28,7.28,0,0,1,.9-.06h.8l.25,0,.46.08.11,0h0l.07,0,.11,0,.13,0,.22.08,0,0a1.81,1.81,0,0,1,.49.29C227.06,312.21,226.86,313.93,226.68,314.8Z" style="fill:#37474f"></path><path d="M221.6,319.09,217,320.81l-.72-5.72c.2-.84.4-1.71,1.15-1.74Z" style="fill:#f28f8f"></path><path d="M206.54,311.19l-7.09,3a6.2,6.2,0,0,1,1,.89l6.16-2.43Z" style="fill:#37474f"></path></g></g><path d="M216.12,331.22c-4.16-.33-9.67-2-11.05-4.73.71,2.88,3.57,4.48,5.88,5.22A24.64,24.64,0,0,0,216,332.8Z" style="fill:#f28f8f"></path></g></g><circle cx="212.66" cy="314.95" r="1.23" style="fill:#263238"></circle><circle cx="222.83" cy="314.95" r="1.23" style="fill:#263238"></circle></g></g><g id="freepik--speech-bubble--inject-16"><g id="freepik--speech-bubble--inject-16"><g id="freepik--speech-bubble--inject-16"><path d="M453.6,118.09a26.33,26.33,0,0,1-7.08,18l-2.18,2.07a26.3,26.3,0,0,1-37.16-37L409.25,99a26.31,26.31,0,0,1,44.35,19.1Z" style="fill:#fff"></path><path d="M427.21,89.6a28.55,28.55,0,0,0-4.63,56.72l3.22,8.26a1.66,1.66,0,0,0,3.1,0l3.19-8.28a28.55,28.55,0,0,0-4.88-56.69Zm26.39,28.49a26.33,26.33,0,0,1-7.08,18l-2.18,2.07a26.3,26.3,0,0,1-37.16-37L409.25,99a26.31,26.31,0,0,1,44.35,19.1Z" style="fill:#455a64"></path><path d="M453.6,118.09a26.33,26.33,0,0,1-7.08,18l-2.18,2.07a26.3,26.3,0,0,1-37.16-37L409.25,99a26.31,26.31,0,0,1,44.35,19.1Z" style="fill:#fff;opacity:0.7000000000000001"></path></g><path d="M416.56,102.43a19.74,19.74,0,0,1,2.05-1.57,14.86,14.86,0,0,1,5.22-2.16,16.08,16.08,0,0,1,3.28-.32,13.66,13.66,0,0,1,4.36.66,9.71,9.71,0,0,1,3.37,1.89,8.32,8.32,0,0,1,2.18,3,9.53,9.53,0,0,1,.77,3.88,9.93,9.93,0,0,1-.6,3.63,10.15,10.15,0,0,1-1.52,2.65,10.89,10.89,0,0,1-2,2l-2.05,1.56A14.55,14.55,0,0,0,430,119a2.79,2.79,0,0,0-.84,1.58l-.64,4h-4.65l-.47-4.49a3.63,3.63,0,0,1,.37-2.27,7.09,7.09,0,0,1,1.43-1.79,20.75,20.75,0,0,1,2-1.57,18.26,18.26,0,0,0,2.07-1.65,8.84,8.84,0,0,0,1.61-2,5.24,5.24,0,0,0,.64-2.66,4,4,0,0,0-1.4-3.13,4.72,4.72,0,0,0-1.58-.86,6.17,6.17,0,0,0-2-.31,8.89,8.89,0,0,0-2.66.35A9.44,9.44,0,0,0,422,105c-.51.28-.94.54-1.28.77a1.75,1.75,0,0,1-.94.34,1.49,1.49,0,0,1-1.43-.82Zm5.2,29.43a4.22,4.22,0,0,1,.32-1.62,3.8,3.8,0,0,1,.87-1.32,4.16,4.16,0,0,1,3-1.22,4.07,4.07,0,0,1,1.64.33,4.38,4.38,0,0,1,1.32.89,3.87,3.87,0,0,1,.9,1.32,4.11,4.11,0,0,1-.9,4.57,4,4,0,0,1-1.32.87,4.24,4.24,0,0,1-1.64.31,4.29,4.29,0,0,1-1.65-.31,3.8,3.8,0,0,1-1.32-.87,4,4,0,0,1-.87-1.31A4.21,4.21,0,0,1,421.76,131.86Z" style="fill:#009EF7"></path></g></g></svg>